<?xml version="1.0" standalone="no"?>
<!DOCTYPE svg PUBLIC "-//W3C//DTD SVG 20010904//EN"
 "http://www.w3.org/TR/2001/REC-SVG-20010904/DTD/svg10.dtd">
<svg version="1.0" xmlns="http://www.w3.org/2000/svg"
 width="141.000000pt" height="142.000000pt" viewBox="0 0 141.000000 142.000000"
 preserveAspectRatio="xMidYMid meet">

<g transform="translate(0.000000,142.000000) scale(0.100000,-0.100000)"
fill="#000000" stroke="none">
<path d="M70 980 c-63 -63 -49 -220 23 -244 40 -14 79 3 99 44 33 66 16 184
-30 209 -32 17 -70 13 -92 -9z"/>
<path d="M1232 993 c-23 -9 -52 -81 -52 -130 0 -91 54 -149 118 -127 54 19 80
131 48 209 -20 47 -67 67 -114 48z"/>
<path d="M0 624 c0 -38 3 -45 16 -40 10 4 56 -18 123 -59 59 -36 111 -65 115
-65 5 0 55 29 111 65 56 36 105 65 110 65 5 0 54 -29 110 -65 56 -36 107 -65
112 -65 5 0 55 29 111 65 57 36 105 65 109 65 3 0 55 -30 115 -66 l109 -67
111 68 c93 57 114 66 129 57 27 -17 29 -16 29 28 0 40 -18 60 -54 60 -9 0 -61
-29 -116 -65 l-100 -65 -104 65 c-57 36 -111 65 -120 65 -9 0 -60 -28 -114
-61 -53 -34 -101 -62 -107 -62 -5 0 -54 28 -107 62 -54 33 -105 61 -115 61
-10 0 -64 -29 -120 -65 l-103 -64 -104 64 c-57 36 -113 65 -125 65 -18 0 -21
-6 -21 -46z"/>
</g>
</svg>
